<svg xmlns="http://www.w3.org/2000/svg" viewBox="0 0 256 256" fill="none"><defs><radialGradient id="bg"><stop stop-color="#a87d50" stop-opacity=".34"/><stop offset="1" stop-color="#1c252a"/></radialGradient><linearGradient id="metal" x1="63" y1="48" x2="179" y2="209" gradientUnits="userSpaceOnUse"><stop stop-color="#e4c9a1"/><stop offset=".42" stop-color="#a87d50"/><stop offset="1" stop-color="#392b23"/></linearGradient><linearGradient id="face" x1="102" y1="91" x2="148" y2="154" gradientUnits="userSpaceOnUse"><stop stop-color="#e4c9a1"/><stop offset="1" stop-color="#a87d50"/></linearGradient><clipPath id="circle"><circle cx="128" cy="128" r="127"/></clipPath></defs><g clip-path="url(#circle)"><path fill="#1c252a" d="M0 0h256v256H0z"/><circle cx="128" cy="128" r="128" fill="url(#bg)"/><circle cx="128" cy="121" r="87" stroke="#a87d50" stroke-opacity=".25"/><g stroke="#e4c9a1" stroke-opacity=".3"><path d="M128.00 220.00l0.00 6.00"/><path d="M193.05 193.05l4.24 4.24"/><path d="M220.00 128.00l6.00 0.00"/><path d="M193.05 62.95l4.24 -4.24"/><path d="M128.00 36.00l0.00 -6.00"/><path d="M62.95 62.95l-4.24 -4.24"/><path d="M36.00 128.00l-6.00 -0.00"/><path d="M62.95 193.05l-4.24 4.24"/></g><g fill="url(#metal)" stroke="#e4c9a1" stroke-opacity=".35" stroke-width="1.3"><path d="M53 236l10-49 36-24 29 20 29-20 36 24 10 49Z"/></g><path d="m98 173 30 37 30-37-16-15h-28Z" fill="#1c252a" stroke="#a87d50" stroke-width="2"/><path d="M115 139h26v28l-13 15-13-15Z" fill="url(#face)"/><path d="M94 90q0-29 34-29t34 29l-5 34-13 24-16 10-16-10-13-24Z" fill="url(#face)" stroke="#e4c9a1" stroke-opacity=".45"/><path d="m98 105 18-4m24 0 18 4" stroke="#1c252a" stroke-width="5" stroke-linecap="round"/><path d="m126 108-5 17h10m-14 12h21" stroke="#5b4631" stroke-opacity=".8" stroke-width="2.5" stroke-linecap="round"/><g fill="url(#metal)" stroke="#e4c9a1" stroke-opacity=".45" stroke-width="1.5"><path d="M77 80l19-8-10-21 28 10 14-27 14 27 28-10-10 21 19 8-21 17H98Z"/></g><path d="m128 53 6 9-6 9-6-9Z" fill="#e4c9a1"/><path d="m73 192 33 34m77-34-33 34" stroke="#e4c9a1" stroke-width="2" stroke-opacity=".6"/><path d="m128 196 7 10-7 10-7-10Z" fill="#e4c9a1"/><circle cx="128" cy="128" r="123" stroke="#a87d50" stroke-width="3"/><circle cx="128" cy="128" r="117" stroke="#e4c9a1" stroke-opacity=".3"/></g></svg>
